<svg width="17" height="24" viewBox="0 0 17 24" fill="none" xmlns="http://www.w3.org/2000/svg">
<path d="M8.47059 0.705872C4.94118 0.705872 2.11765 3.5294 2.11765 7.05881V9.88234C0.917647 9.88234 0 10.8 0 12V21.1765C0 22.3765 0.917647 23.2941 2.11765 23.2941H14.8235C16.0235 23.2941 16.9412 22.3765 16.9412 21.1765V12C16.9412 10.8 16.0235 9.88234 14.8235 9.88234V7.05881C14.8235 3.5294 12 0.705872 8.47059 0.705872ZM15.5294 12V21.1765C15.5294 21.6 15.2471 21.8823 14.8235 21.8823H2.11765C1.69412 21.8823 1.41176 21.6 1.41176 21.1765V12C1.41176 11.5765 1.69412 11.2941 2.11765 11.2941H2.82353H14.1176H14.8235C15.2471 11.2941 15.5294 11.5765 15.5294 12ZM3.52941 9.88234V7.05881C3.52941 4.30587 5.71765 2.11764 8.47059 2.11764C11.2235 2.11764 13.4118 4.30587 13.4118 7.05881V9.88234H3.52941Z" fill="#9D9FA0"/>
<path d="M8.47058 13.4117C7.27058 13.4117 6.35294 14.3294 6.35294 15.5294C6.35294 16.447 6.91764 17.2235 7.7647 17.5059V19.0588C7.7647 19.4823 8.04705 19.7647 8.47058 19.7647C8.89411 19.7647 9.17647 19.4823 9.17647 19.0588V17.5059C10.0235 17.2235 10.5882 16.447 10.5882 15.5294C10.5882 14.3294 9.67058 13.4117 8.47058 13.4117ZM8.47058 16.2353C8.04705 16.2353 7.7647 15.9529 7.7647 15.5294C7.7647 15.1059 8.04705 14.8235 8.47058 14.8235C8.89411 14.8235 9.17647 15.1059 9.17647 15.5294C9.17647 15.9529 8.89411 16.2353 8.47058 16.2353Z" fill="#9D9FA0"/>
</svg>
